<svg xmlns="http://www.w3.org/2000/svg" viewBox="95 95 310 310"><path fill-opacity=".996" d="m377.56 118.26 17.88 6.32a.35.35 0 0 1 0 .66l-17.91 6.26a.35.35 0 0 0-.21.22L371 149.6a.35.35 0 0 1-.66 0l-6.26-17.91a.35.35 0 0 0-.22-.21l-17.88-6.32a.35.35 0 0 1 0-.66l17.91-6.26a.35.35 0 0 0 .21-.22l6.32-17.88a.35.35 0 0 1 .66 0l6.26 17.91a.35.35 0 0 0 .22.21M120.9 234.08v29.5a.57.56 3.4 0 0 .5.56q6.17.82 9.39 1.58c5.35 1.26 10.58 1.31 15.87 3.05a4.11 4.11 0 0 1 2.72 2.94q3.77 15.68 11.74 29.66c1.96 3.43.66 5.69-1.75 9.26q-3.48 5.13-4.87 7.28c-2.2 3.39-4.27 5.7-6.94 9.75a.99.98 39.2 0 0 .13 1.24l21.3 21.31a1.43 1.43 0 0 0 1.83.15q1.98-1.43 18.63-13.57 3-2.2 6.44-.19 14.62 8.53 30.94 13a3.51 3.51 0 0 1 2.52 2.73l4.66 24.48a1.33 1.32 84.4 0 0 1.3 1.08h29.81a.93.92 5.2 0 0 .91-.75l4.78-25.39a1.51 1.49 74.2 0 1 .46-.84c2.01-1.87 4.42-1.98 7.18-2.86q14.21-4.55 26.54-11.89c2.05-1.23 3.44-1.01 5.27.32q12.77 9.28 19.68 14.07a.79.79 0 0 0 1.01-.09l21.51-21.51a.97.96 49.3 0 0 .09-1.27q-3-3.99-13.46-19.45-2.33-3.43 0-7.14l1.55-2.46q4.99-10.43 5.68-12.55 1.85-5.69 4.75-14.91a3.92 3.92 0 0 1 3.01-2.68l24.57-4.68a.63.63 0 0 0 .51-.63q-.36-12.25.02-28.34.05-2.29-1.85-2.65-11.66-2.21-22.99-3.97-3.06-.47-3.62-3.1c-.79-3.64-2.22-7.08-3.26-10.85a3.93 3.92-13.2 0 1 3.05-4.9l.35-.07a4.46 4.44 76.1 0 1 5.09 3.08l2.16 7.05a1 1 0 0 0 .76.7q6.23 1.28 12.33 2.03c4.05.49 8.5 1.49 12.76 2.33q2.03.4 3.26 2.47.7 1.19.62 4.18-.21 8.12.19 17.09c.25 5.61-.81 13.12-.26 18.14.36 3.22-2.35 4.78-4.81 5.3q-11.6 2.4-23.62 4.8a.98.96-84 0 0-.7.58c-1.81 4.15-3.01 9.49-4.46 12.64q-2.44 5.32-6.7 14.45a.99.99 0 0 0 .06.95q6.46 10.06 14.07 20.39c2.26 3.07.42 5.7-2.02 8.17q-19.96 20.27-22.61 23.08c-2.19 2.31-3.96 4.58-8.28 3.63a.68.65-19.7 0 1-.27-.12l-20.86-15.14a1.17 1.16-41.7 0 0-1.27-.07q-13.15 7.52-27.18 11.72a.86.85-2.9 0 0-.59.65q-2.83 13.48-4.75 25.6-.09.58-1.81 2.49a1.74 1.71-73.4 0 1-.98.54q-2 .33-5.64.33-25.48-.02-35.34-.1c-2.49-.02-3.37-1.72-3.79-4.08q-1.22-6.71-3.99-22.16-.42-2.31-.85-2.93a1.41 1.4-9 0 0-.75-.54q-14.56-4.47-27.2-11.55a.71.7-47.8 0 0-.74.04q-11.54 8.11-19.32 13.93c-2.43 1.83-5.13 2.81-7.5.42q-26.01-26.16-26.98-27.26c-2.43-2.77-1.4-5.04.61-7.93q11.59-16.66 13.06-18.8a1.66 1.64-42.6 0 0 .08-1.74q-7.09-12.65-10.65-26.23a1.5 1.49-2.1 0 0-1.18-1.09q-9.65-1.7-12.98-2.48-3.52-.82-8.82-1.63c-2.33-.35-3.84-.87-5.51-2.15a3.19 3.17-72 0 1-1.25-2.47q-.34-16.51-.29-32.61.01-2.81.03-5.52c.03-3.81 2.51-4.8 6.05-5.3q5.42-.77 7.94-1.33c4.99-1.09 10-1.19 15.07-2.58a1.43 1.43 0 0 0 1.02-1.08c1.92-8.95 6.18-17.22 10.54-25.81a1.08 1.08 0 0 0-.07-1.1q-5.87-8.54-14.77-19.76-1.94-2.44-1.56-5.03a2.24 2.21 71.7 0 1 .63-1.28q.73-.73 28.07-28.32c3.72-3.76 6.4-1.19 10.26 1.58q12.05 8.65 16.01 11.68a2.6 2.59 47.6 0 0 2.97.14q8.39-5.28 19.57-9.03 3.62-1.22 7.45-2.65a.9.89 87.6 0 0 .55-.61q.8-2.94 4.58-25.12.6-3.51 4.19-3.51 9.56-.01 38.26-.02c4 0 5.04 1.84 5.54 5.62q1.4 10.67 4.07 22.46a1.33 1.32 3.2 0 0 .87.97q4.14 1.45 7.65 2.76 4.62 1.73 2.47 6.25a1.78 1.71 87.4 0 1-.65.74q-2.62 1.7-3.96 1.31-3.96-1.14-11.96-3.43a1.66 1.65-11.9 0 1-.83-.54q-1.54-1.83-2.1-5.12-.74-4.39-3.78-21.69a.77.77 0 0 0-.76-.64h-30.63a.73.72-84.7 0 0-.71.6q-3.12 18.36-3.81 22.98-.44 2.93-2.47 4.12a2.96 2.92-68.5 0 1-.61.27c-10.96 3.26-21.98 7.2-31.62 13.83a2.41 2.28-66 0 1-.84.35q-3.5.71-5.37-.68-9.45-7.02-19.75-14.38a.51.51 0 0 0-.66.05l-21.66 21.66a1.82 1.81-41.1 0 0-.17 2.37q4.38 5.85 13.86 18.17 1.83 2.38 1.65 4.84a1.91 1.86 62.6 0 1-.24.8q-7.67 13.49-10.42 22.57-2.88 9.53-3.1 10.01a1.27 1.26 2.3 0 1-.71.65q-2.61.97-3.04 1.04-11.54 1.89-22.52 3.88a1.94 1.94 0 0 0-1.59 1.91"/><path fill-opacity=".996" d="M215.28 294.75a.49.49 0 0 0-.73-.04q-4.75 4.74-10.26 10.72c-1.29 1.4-3.13 2.65-4.47 3.99a1.07 1.06-49.5 0 0 .12 1.62c7.26 5.3 14.86 9.89 22.99 12.48 5.24 1.67 9.72 3.2 14.58 3.77 4.47.53 7.88 1.36 11.67 1.31q30.51-.44 52.76-19.44 11.53-9.85 18.87-23.89 7.2-13.8 8.45-29.21 1.96-24.22-9.76-46.99a4.93 4.92-32.5 0 1 1.38-6.23l.02-.02a3.67 3.66 56.8 0 1 5.41 1.13q7.54 13.42 10.09 26.59.58 2.95 1.34 8.71 1.93 14.49-1.36 28.42-4.33 18.36-14.37 32.12-.02.02-3.96 5.3-1.37 1.84-4.41 4.93-17.63 17.95-41.22 24.09c-26.7 6.96-55.33.82-76.83-15.88-14.33-11.14-24.2-25.61-29.93-43.08q-1.62-4.94-3.05-13.87-1.3-8.11-1.01-14.12.71-14.38 4.05-24.81 8.38-26.15 30.28-43.67 10.09-8.06 21.54-12.42 38.53-14.67 75.52 4.64a5.38 5.37-68.6 0 1 2.7 6.19l-.08.3a3.58 3.57-68.9 0 1-5.06 2.25q-10.5-5.29-18.44-7.74c-13.04-4.01-27.93-4.26-41.25-.83q-23.43 6.04-40.2 24.51c-1.45 1.6-2.31 3.58-3.99 4.98a3.29 2.96-88.6 0 0-.52.55q-12.32 16.88-14.95 35.78c-3.36 24.17 3.99 48.87 21.11 66.7a1.05 1.05 0 0 0 1.5.01q7.65-7.75 17.87-17.9c3.21-3.2 2.69-4.76 2.84-8.93q.18-4.77.1-69.74c-.01-3.64.93-7.1 5.11-7.05q4.24.06 32.06.15 17.12.05 30.8 10.45a.63.62 40.5 0 0 .82-.06l39.28-40.92a.61.61 0 0 0-.14-.95l-17.66-10.2a3.36 3.35 11.6 0 1-1.66-2.51q-.59-4.88 3.8-5.6 5.97-.97 11.45-2.07 23.85-4.81 32-5.91 2.4-.33 3.8 1.55.85 1.14.55 4.29-.63 6.55-.94 7.69c-1.19 4.36-1.47 8.36-2.36 12.79q-1.99 9.89-3.26 18.24c-.35 2.26-.85 3.3-1.76 5.68a1.74 1.68-7.5 0 1-.65.82q-2.63 1.72-5.65-.09-.9-.53-2.32-2.96-2.65-4.52-7.9-13.79a1.01 1.01 0 0 0-1.47-.32q-1 .7-1.87 1.65-6.03 6.48-36.03 37.73-1.52 1.59-.24 3.22c3.43 4.33 6.31 9.06 7.98 14.28q6.72 21-4.1 40.24c-1.66 2.96-4.52 6.31-6.49 8.41q-10.02 10.64-23.18 13.79-7.21 1.72-15.59 1.71-13.68-.01-25 .16c-3.8.06-6.6.02-8.72-2.7m105.06-137.21 8.24 4.76a.96.96 0 0 0 1.17-.17l7.36-7.66a.56.56 0 0 0-.51-.94l-16.1 3.06a.51.51 0 0 0-.16.95m20.74 20.11 3.25-17.25a.42.42 0 0 0-.72-.37l-7.77 8.1a1.21 1.21 0 0 0-.18 1.44l4.74 8.2a.37.37 0 0 0 .68-.12M223.56 209.8l-.14 77.72a1.01 1.01 0 0 0 1.01 1.01l27.44.05a40.25 39.84.1 0 0 40.32-39.77v-.06a40.25 39.84.1 0 0-40.18-39.91l-27.44-.05a1.01 1.01 0 0 0-1.01 1.01"/></svg>